# xmcd
#
# Track frame offsets: 
#        183
#        42863
#        83055
#        124205
#        152530
#        187563
#        221118
#        252915
#        265233
#        299825
#
# Disc length: 4429 seconds
#
# Revision: 0
# Processed by: cddbd v1.5.2PL0 Copyright (c) Steve Scherf et al.
# Submitted via: ExactAudioCopy v0.95a5
#
DISCID=8c114b0a
DTITLE=Pigmeat Markham - Jive Talk
DYEAR=1900
DGENRE=Blues
TTITLE0=Jive Talk
TTITLE1=Reading and Writing
TTITLE2=The Preacher
TTITLE3=The Bachelor Apartment
TTITLE4=The Camera
TTITLE5=Bussin' the Bee
TTITLE6=Al's Rest Home
TTITLE7=Here Comes the Judge
TTITLE8=The Fortune Teller
TTITLE9=The Old Hat
EXTD=
EXTT0=
EXTT1=
EXTT2=
EXTT3=
EXTT4=
EXTT5=
EXTT6=
EXTT7=
EXTT8=
EXTT9=
PLAYORDER=
